<svg width="20" height="19" viewBox="0 0 20 19" fill="none" xmlns="http://www.w3.org/2000/svg">
<path d="M1.25 10.5031L16.075 10.5031L11.5375 15.9531C11.3253 16.2083 11.2232 16.5374 11.2537 16.868C11.2842 17.1985 11.4447 17.5034 11.7 17.7156C11.9553 17.9277 12.2844 18.0298 12.6149 17.9993C12.9454 17.9689 13.2503 17.8083 13.4625 17.5531L19.7125 10.0531C19.7545 9.99342 19.7922 9.93075 19.825 9.86557C19.825 9.80307 19.825 9.76557 19.9125 9.70307C19.9692 9.55975 19.9988 9.40718 20 9.25307C19.9988 9.09896 19.9692 8.9464 19.9125 8.80307C19.9125 8.74057 19.9125 8.70307 19.825 8.64057C19.7922 8.5754 19.7545 8.51273 19.7125 8.45307L13.4625 0.953074C13.345 0.811972 13.1978 0.698496 13.0314 0.620718C12.8651 0.542942 12.6836 0.502775 12.5 0.503073C12.2079 0.502502 11.9249 0.604221 11.7 0.790573C11.5734 0.89551 11.4688 1.02439 11.3921 1.16982C11.3154 1.31525 11.2682 1.47439 11.2531 1.63811C11.238 1.80183 11.2553 1.96692 11.3041 2.12392C11.3529 2.28093 11.4322 2.42676 11.5375 2.55307L16.075 8.00307L1.25 8.00307C0.91848 8.00307 0.600536 8.13477 0.366116 8.36919C0.131695 8.60361 0 8.92155 0 9.25307C0 9.58459 0.131695 9.90254 0.366116 10.137C0.600536 10.3714 0.91848 10.5031 1.25 10.5031Z" fill="#F53838"/>
</svg>
