<svg width="20" height="19" viewBox="0 0 20 19" fill="none" xmlns="http://www.w3.org/2000/svg">
<path d="M18.75 10.5014L3.925 10.5014L8.4625 15.9514C8.67467 16.2066 8.77675 16.5357 8.74628 16.8663C8.7158 17.1968 8.55527 17.5017 8.3 17.7139C8.04473 17.926 7.71563 18.0281 7.3851 17.9976C7.05456 17.9672 6.74967 17.8066 6.5375 17.5514L0.2875 10.0514C0.245451 9.99171 0.207849 9.92904 0.175 9.86386C0.175 9.80136 0.175 9.76386 0.0875002 9.70136C0.0308421 9.55804 0.0011764 9.40548 0 9.25136C0.0011764 9.09725 0.0308421 8.94469 0.0875002 8.80136C0.0875002 8.73886 0.0874998 8.70136 0.175 8.63886C0.207849 8.57369 0.245451 8.51102 0.2875 8.45136L6.5375 0.951365C6.65503 0.810263 6.8022 0.696787 6.96856 0.619009C7.13491 0.541233 7.31636 0.501066 7.5 0.501364C7.79207 0.500793 8.07511 0.602512 8.3 0.788864C8.42657 0.893801 8.5312 1.02268 8.60789 1.16811C8.68458 1.31355 8.73183 1.47268 8.74692 1.6364C8.76202 1.80012 8.74466 1.96521 8.69586 2.12222C8.64705 2.27922 8.56775 2.42505 8.4625 2.55136L3.925 8.00136L18.75 8.00136C19.0815 8.00136 19.3995 8.13306 19.6339 8.36748C19.8683 8.6019 20 8.91984 20 9.25136C20 9.58288 19.8683 9.90083 19.6339 10.1352C19.3995 10.3697 19.0815 10.5014 18.75 10.5014Z" fill="white"/>
</svg>
